<?xml version="1.0" encoding="utf-8"?>
<!-- Generator: Adobe Illustrator 25.2.1, SVG Export Plug-In . SVG Version: 6.00 Build 0)  -->
<svg version="1.1" id="Layer_1" xmlns="http://www.w3.org/2000/svg" xmlns:xlink="http://www.w3.org/1999/xlink" x="0px" y="0px"
	 viewBox="0 0 600 600" style="enable-background:new 0 0 600 600;" xml:space="preserve">
<style type="text/css">
	.st0{fill:#D2D3D5;}
	.st1{fill:url(#SVGID_1_);}
	.st2{fill:#3F6636;}
	.st3{fill:#385B6B;}
	.st4{fill:#DB6F27;}
	.st5{fill:url(#SVGID_2_);}
	.st6{fill:url(#SVGID_3_);}
	.st7{fill:url(#SVGID_4_);}
	.st8{fill:#282E80;}
</style>
<g>
	<g>
		<g>
			<circle class="st0" cx="302.9" cy="211" r="89.7"/>
			<linearGradient id="SVGID_1_" gradientUnits="userSpaceOnUse" x1="302.9474" y1="194.0744" x2="302.9474" y2="152.9037">
				<stop  offset="0" style="stop-color:#D2D3D5"/>
				<stop  offset="0.9997" style="stop-color:#FFFFFF"/>
			</linearGradient>
			<ellipse class="st1" cx="302.9" cy="162.1" rx="54.3" ry="31.5"/>
		</g>
		<path class="st2" d="M215.1,167.1c-0.8,1.2-7.7,11.7-3.4,21c3.9,8.4,14.4,10.1,21.3,11.2c17.4,2.8,31.9-4.7,38.6-8.8
			c-2.7-3.8-5.4-7.7-8.1-11.5c5.2,2.3,12.8,5,22.4,6.1c10.7,1.2,19.6,0,25.4-1.4c-5.6,10.1-12.6,21.1-21.3,32.5
			c-4.8,6.2-9.6,11.8-14.2,16.9c0.8-5.9,1.6-11.7,2.4-17.6c-8.3,3.1-27.1,8.6-47.1,1.4c-6.9-2.5-16.3-5.9-21-15.2
			C202.2,186.2,214.4,168.3,215.1,167.1z"/>
		<path class="st3" d="M204.3,226.1c1.3,3.5,3.6,8.4,8.1,12.5c4.8,4.4,14.2,10,39,7.5c49.7-5.2,82.9-35.1,87.4-39.3
			c9.6-8.9,16.4-17.4,20.7-23.4c-6.9-1-13.8-2-20.7-3c5.9-1.8,12.9-4.3,20.3-8.1c9.2-4.7,16.5-10,22-14.6c2.3,6.7,4.9,16.9,4.7,29.5
			c-0.2,16.3-4.8,29-8.1,36.2c-0.7-7.6-1.4-15.1-2-22.7c-6.8,7.7-17.4,18.3-32.2,28.5c-14,9.6-44.7,27.6-85,28.5
			c-15.1,0.3-31.8,0.4-43.7-11.5C208.2,239.4,205.5,231.4,204.3,226.1z"/>
		<path class="st4" d="M221.6,264.7c5.8,3.8,14,8.1,24.4,10.5c27.8,6.5,51-5.1,58.3-9.1c-5.2-3.2-10.4-6.3-15.6-9.5
			c10.2,0.9,22.6,1.1,36.6-0.3c13-1.3,24.2-3.8,33.5-6.4c-4.6,7.4-11.4,16.6-21,25.7c-8.6,8.2-17.1,14.1-24.1,18.3
			c0.6-4,1.1-7.9,1.7-11.9c-9.3,4.5-26.3,10.9-47.4,9.1c-10.2-0.9-26.3-2.2-38.3-14.6C225.6,272.3,223.1,267.9,221.6,264.7z"/>
		<linearGradient id="SVGID_2_" gradientUnits="userSpaceOnUse" x1="207.4277" y1="197.8007" x2="311.3457" y2="197.8007">
			<stop  offset="0" style="stop-color:#A0CA3A"/>
			<stop  offset="1" style="stop-color:#55A546"/>
		</linearGradient>
		<path class="st5" d="M215.1,164.8c-0.8,1.2-7.7,11.7-3.4,21c3.9,8.4,14.4,10.1,21.3,11.2c17.4,2.8,31.9-4.7,38.6-8.8
			c-2.7-3.8-5.4-7.7-8.1-11.5c5.2,2.3,12.8,5,22.4,6.1c10.7,1.2,19.6,0,25.4-1.4c-5.6,10.1-12.6,21.1-21.3,32.5
			c-4.8,6.2-9.6,11.8-14.2,16.9c0.8-5.9,1.6-11.7,2.4-17.6c-8.3,3.1-27.1,8.6-47.1,1.4c-6.9-2.5-16.3-5.9-21-15.2
			C202.2,183.8,214.4,165.9,215.1,164.8z"/>
		<linearGradient id="SVGID_3_" gradientUnits="userSpaceOnUse" x1="202.5385" y1="206.1084" x2="384.1131" y2="206.1084">
			<stop  offset="0" style="stop-color:#29BAEA"/>
			<stop  offset="0.9997" style="stop-color:#217AA0"/>
		</linearGradient>
		<path class="st6" d="M202.5,224.5c1.3,3.5,3.6,8.4,8.1,12.5c4.8,4.4,14.2,10,39,7.5c49.7-5.2,82.9-35.1,87.4-39.3
			c9.6-8.9,16.4-17.4,20.7-23.4c-6.9-1-13.8-2-20.7-3c5.9-1.8,12.9-4.3,20.3-8.1c9.2-4.7,16.5-10,22-14.6c2.3,6.7,4.9,16.9,4.7,29.5
			c-0.2,16.3-4.8,29-8.1,36.2c-0.7-7.6-1.4-15.1-2-22.7c-6.8,7.7-17.4,18.3-32.2,28.5c-14,9.6-44.7,27.6-85,28.5
			c-15.1,0.3-31.8,0.4-43.7-11.5C206.4,237.9,203.7,229.9,202.5,224.5z"/>
		<linearGradient id="SVGID_4_" gradientUnits="userSpaceOnUse" x1="221.5768" y1="269.9546" x2="358.7709" y2="269.9546">
			<stop  offset="0" style="stop-color:#F9BB3B"/>
			<stop  offset="1" style="stop-color:#E68739"/>
		</linearGradient>
		<path class="st7" d="M221.6,262.8c5.8,3.8,14,8.1,24.4,10.5c27.8,6.5,51-5.1,58.3-9.1c-5.2-3.2-10.4-6.3-15.6-9.5
			c10.2,0.9,22.6,1.1,36.6-0.3c13-1.3,24.2-3.8,33.5-6.4c-4.6,7.4-11.4,16.6-21,25.7c-8.6,8.2-17.1,14.1-24.1,18.3
			c0.6-4,1.1-7.9,1.7-11.9c-9.3,4.5-26.3,10.9-47.4,9.1c-10.2-0.9-26.3-2.2-38.3-14.6C225.6,270.4,223.1,266,221.6,262.8z"/>
	</g>
	<g>
		<path class="st8" d="M37.2,355.2c0.4-1.2,0.8-2.4,0.8-3.7c0-0.7-0.2-1.6-0.4-2.2c-1.8-5.2-4.3-10-4.3-12.6c0-0.7,1.8-1.8,5.5-1.8
			c3,0,6,0.3,9.1,0.6c0.5-0.7,1.1-1.8,1.1-2.6c0-0.5-0.2-1.2-0.4-1.6c-1.3-1.9-3-3.6-5.1-4.8c-1.3-0.8-2.7-1.1-4.2-1.1
			c-1.2,0-2.2,0.4-3.1,1s-1.9,2-1.9,3c0,0.9,0.2,2.1,0.5,3.2c-1.3,0.7-2.3,1.8-3,3.2c-0.6,1.1-0.9,2.2-0.9,3.3c0,0.8,0.3,2,0.6,2.9
			c2.1,5.2,4.8,10.2,4.9,13.1L37.2,355.2z M36.4,329.9l-0.1-1.3c0.7-0.2,1.4-0.3,2-0.3c3.2,0,5.2,1.8,7.1,3.7l-0.1,0.3
			c-1.9-0.3-4.1-0.5-5.2-0.5c-1.7,0-3.4,0.1-4.5,0.4C35.8,331.7,36.2,330.8,36.4,329.9z"/>
		<path class="st8" d="M59.3,333.3c-2.4,0-4.1,1.3-4.1,3.2c0,1.8,1.6,3.2,4,3.2c2.5,0,4.1-1.4,4.1-3.2
			C63.3,334.7,61.7,333.3,59.3,333.3z"/>
		<path class="st8" d="M74.2,355.1l0.8,0.1c0.4-1.2,0.8-2.4,0.8-3.7c0-0.7-0.2-1.6-0.4-2.2c-1.8-5.2-4.3-10-4.3-12.6
			c0-0.7,1.8-1.8,5.5-1.8c3,0,6,0.3,9.1,0.6c0.5-0.7,1.1-1.8,1.1-2.6c0-0.5-0.2-1.2-0.4-1.6c-1.3-1.9-3-3.6-5.1-4.8
			c-1.3-0.8-2.7-1.1-4.2-1.1c-1.2,0-2.2,0.4-3.1,1c-0.9,0.6-1.9,2-1.9,3c0,0.9,0.2,2.1,0.5,3.2c-1.3,0.7-2.3,1.8-3,3.2
			c-0.6,1.1-0.9,2.2-0.9,3.3c0,0.8,0.3,2,0.6,2.9C71.5,347.2,74.1,352.2,74.2,355.1z M74.2,329.9l-0.1-1.3c0.7-0.2,1.4-0.3,2-0.3
			c3.2,0,5.2,1.8,7.1,3.7l-0.1,0.3c-1.9-0.3-4.1-0.5-5.2-0.5c-1.7,0-3.4,0.1-4.5,0.4C73.6,331.7,74,330.8,74.2,329.9z"/>
		<path class="st8" d="M97.1,333.3c-2.4,0-4.1,1.3-4.1,3.2c0,1.8,1.6,3.2,4,3.2c2.5,0,4.1-1.4,4.1-3.2
			C101.1,334.7,99.5,333.3,97.1,333.3z"/>
		<path class="st8" d="M123.8,332.8c0-2.1-1.3-4-3.3-5.9c-2.2-2.1-5.3-3.9-8-5.1l-0.3,0c-0.8,0.9-1.7,2.2-1.7,2.8
			c0,0.3,0.3,0.6,1.1,0.9c2.4,0.9,4.9,2.2,6.8,3.8c2,1.6,3.1,3.4,3.1,4.7c0,0.2-0.2,0.4-0.7,0.6c-2.4,1-4.6,1.6-7.2,1.6
			c-4.2,0-5.4-1.7-5.5-3.8h-1.3c-0.2,0.8-0.2,1.4-0.2,1.8c0,3.7,2.6,5.2,6.4,5.2c3.1,0,6.3-1,9.3-2.3
			C123.2,335.8,123.8,334.4,123.8,332.8z"/>
		<path class="st8" d="M115.8,316.2c-1.3-1-2.6-1.9-4-2.7c-0.9,0.8-1.8,1.6-2.7,2.5c1.3,0.8,2.6,1.6,3.9,2.6
			C114.2,317.9,115.1,317.1,115.8,316.2z"/>
		<path class="st8" d="M160.9,315.5c-1.3-1-2.4-1.9-3.8-2.7c-0.8,0.6-1.8,1.5-2.6,2.4c1.3,0.8,2.5,1.6,3.9,2.6
			C159.3,317.2,160,316.5,160.9,315.5z"/>
		<path class="st8" d="M154.5,315.9c-1.3-1-2.4-1.9-3.8-2.7c-0.8,0.6-1.8,1.5-2.6,2.4c1.3,0.8,2.5,1.6,3.9,2.6
			C152.9,317.5,153.6,316.9,154.5,315.9z"/>
		<path class="st8" d="M150,336.8c2.6,0,4.7-0.5,6.6-1.1c1.3,2.8,3.6,3.5,6.9,3.5h0.7h0h0.6c2.9,0,5.5-0.9,6.6-2.5h0.1
			c1.1,1.9,3.6,2.5,6.9,2.5h0.8h0h0.4c5.1,0,7.5-0.4,9-1.5c1.3-1.3,2.3-2.8,2.3-4.6c0-2.5-1.8-5.6-3.3-7.6h-0.2
			c-0.9,0.8-1.7,1.7-2.5,2.8c1.7,2.5,3.3,5,3.3,6.1c0,0.4-0.7,0.8-1.9,1.1c-1.5,0.4-3.7,0.5-6.6,0.5h-0.6h0h-0.6
			c-1.8,0-3.1-0.3-4.1-1c-0.8-0.5-1.1-1.2-1.1-2.1c0-0.5,0.3-1.6,0.7-2.9l-0.2-0.2l-2.3,1.2l-1,2.7c-0.5,1.4-3.2,2.2-5.7,2.2h-0.7h0
			h-0.8c-1.5,0-2.7-0.1-3.5-0.6c-1-0.6-1.2-1.8-1.3-3.5c-0.1-3.9-0.1-7.7-0.2-11.6h-0.4c-0.9,0.6-1.8,1.3-2.6,2l0.2,1.9
			c-5.7,2.4-9.2,4.6-10.6,6.8c-0.8,1.3-1.1,2.2-1.1,2.9C144,335.9,146.5,336.8,150,336.8z M155.9,326.9l0.2,6.1
			c-2,0.5-3.5,0.7-4.9,0.7c-2.3,0-4.3-0.4-4.3-1.4C146.9,331.1,150,329.2,155.9,326.9z"/>
		<path class="st8" d="M173.9,343.8c-0.8,0.6-1.8,1.5-2.6,2.4c1.3,0.8,2.5,1.6,3.9,2.6c0.9-0.6,1.6-1.3,2.5-2.3
			C176.4,345.5,175.2,344.6,173.9,343.8z"/>
		<path class="st8" d="M164.8,346.5c1.3,0.8,2.5,1.6,3.9,2.6c0.9-0.6,1.6-1.3,2.5-2.3c-1.3-1-2.4-1.9-3.8-2.7
			C166.6,344.8,165.7,345.6,164.8,346.5z"/>
		<path class="st8" d="M182.9,321.7L182.9,321.7c-0.6,0.2-1.2,0.6-1.5,0.9l-0.8,1l0.1,0.1c2.4-0.8,5.3-1.5,8.7-1.9
			c0.5-0.5,0.9-1.1,1.3-1.7v-0.1c-1.1,0-2.3,0.1-3.4,0.1c-2,0-4.8-0.4-4.8-1.6c0-0.4,1.2-0.9,2.3-0.9c0.4,0,0.8,0,1,0.1
			c0.4,0.1,0.7,0.4,1.1,1h0.1c0.5-0.5,1.1-1,1.1-1.6c0-0.6-0.8-1.2-2.1-1.2c-1.4,0-2.9,0.6-4,1.4c-0.9,0.6-1.6,1.5-1.6,2.2
			C180.3,320.6,181.4,321.4,182.9,321.7z"/>
		<path class="st8" d="M197.9,334.6c0,1.6,0,3.4-0.4,5l0.4,0.2c1.9-1.6,2.8-2.6,2.9-4c0.2-1.1,0.2-2.6,0.2-4.1
			c0-5.8-0.2-12.1-0.9-17.5l-0.3-0.1c-1,0.7-2.3,1.7-3.3,2.6c0.5,4.3,1.2,10.9,1.2,15.5V334.6z"/>
		<path class="st8" d="M221.8,316c-1.3-1-2.6-1.9-4-2.7c-0.9,0.8-1.8,1.6-2.7,2.5c1.3,0.8,2.6,1.6,3.9,2.6
			C220.1,317.7,221,316.9,221.8,316z"/>
		<path class="st8" d="M245.6,320c-1.3-1-2.6-1.9-4-2.7c-0.9,0.8-1.8,1.6-2.7,2.5c1.3,0.8,2.6,1.6,3.9,2.6
			C244,321.7,244.9,320.9,245.6,320z"/>
		<path class="st8" d="M262.8,313.6c-0.7,0.5-1.4,0.9-1.8,1.4c-0.7,0.5-1,1.1-1,1.7c0,0.9,0.2,2,0.3,3.1c0.5,4.6,0.9,8.9,1,12.9
			c0,1.3-0.6,2.2-1.8,2.7c-1.4,0.6-2.7,0.7-3.7,0.7H255h0h-1.3c-2.8,0-5.4-0.5-7.6-1.4v-0.1l5.8-4l1.2-2.7c-2.5-0.8-5.8-1.2-9.7-1.2
			c-3.3,0-6.3,0.4-8.9,0.8l-1,0.1l-1.3,2.9l0.1,0h1c0.6,0,1.5,0.5,2.3,1c1.6,1.1,3.1,2.4,4.7,3.2v0.1c-3.5,1.2-5.9,1.2-8.7,1.2h-1.4
			h0h-0.6c-2.5,0-4.7-1.3-5.3-3.8c-0.9-3.7-1.9-7.5-3.2-11.1l-0.2-0.1c-0.9,0.8-1.6,1.7-2.4,2.6c1.6,4.2,2.8,7.6,2.8,9.2
			c0,0.6-0.9,1.3-2.2,1.9c-1.6,0.7-3.7,1.2-5.4,1.2c-3.2,0-4.6-1.3-4.7-3.3l-1.3,0.1c-0.1,0.6-0.1,1.2-0.1,1.8
			c0,2.9,2.1,4.6,5.8,4.6c2.2,0,4.5-0.7,6.7-1.7c1.4-0.6,2.1-1.4,2.4-2.4h0.2c1.3,3.1,3.8,4.1,6.8,4.1h0.6h0h1c4,0,7.6-0.7,11.7-2.9
			h0.1c3.2,1.9,7.4,2.9,11.1,2.9h1h0h0.5c1.3,0,2.9-0.2,4.2-0.7c1.5-0.6,2.3-1.6,3-2.9c1-1.5,1.3-3.6,1.3-6.2c0-2.8-0.3-5.8-0.4-8.6
			c0.8-0.4,1.5-0.8,2.1-1.3c-1.7-2.1-2.8-4.1-2.7-5.7L262.8,313.6z M243.5,333.6c-1.6-0.8-3-1.7-4.1-2.5c-0.7-0.5-1.4-1-2-1.4v-0.1
			c2-0.3,4-0.4,6.2-0.4c2.3,0,4.4,0.3,6.2,0.6v0.1c-2.1,1.5-4.2,2.7-6.1,3.7H243.5z"/>
		<path class="st8" d="M271.8,334.6c0,1.6,0,3.4-0.4,5l0.4,0.2c1.9-1.6,2.8-2.6,2.9-4c0.2-1.1,0.2-2.6,0.2-4.1
			c0-5.8-0.2-12.1-0.9-17.5l-0.3-0.1c-1,0.7-2.3,1.7-3.3,2.6c0.5,4.3,1.2,10.9,1.2,15.5V334.6z"/>
		<path class="st8" d="M313,332.8c0-2.1-1.3-4-3.3-5.9c-2.2-2.1-5.3-3.9-8-5.1l-0.3,0c-0.8,0.9-1.7,2.2-1.7,2.8
			c0,0.3,0.3,0.6,1.1,0.9c2.4,0.9,4.9,2.2,6.8,3.8c2,1.6,3.1,3.4,3.1,4.7c0,0.2-0.2,0.4-0.7,0.6c-2.4,1-4.6,1.6-7.2,1.6
			c-4.2,0-5.4-1.7-5.5-3.8h-1.3c-0.2,0.8-0.2,1.4-0.2,1.8c0,3.7,2.6,5.2,6.4,5.2c3.1,0,6.3-1,9.3-2.3
			C312.5,335.8,313,334.4,313,332.8z"/>
		<path class="st8" d="M319.8,334.6c0,1.6,0,3.4-0.4,5l0.4,0.2c1.9-1.6,2.8-2.6,2.9-4c0.2-1.1,0.2-2.6,0.2-4.1
			c0-5.8-0.2-12.1-0.9-17.5l-0.3-0.1c-1,0.7-2.3,1.7-3.3,2.6c0.5,4.3,1.2,10.9,1.2,15.5V334.6z"/>
		<path class="st8" d="M395.7,320.7c0.8-0.4,1.5-0.8,2.1-1.3c-1.7-2.1-2.8-4.1-2.7-5.7l-0.2-0.1c-0.7,0.5-1.4,0.9-1.8,1.4
			c-0.7,0.5-1,1.1-1,1.7c0,0.9,0.2,2,0.3,3.1c0.5,4.6,0.9,8.9,1,12.9c0,1.3-0.6,2.2-1.8,2.7c-1.4,0.6-2.7,0.7-3.7,0.7h-0.7h0h-0.4
			c-3.9,0-4.9-1.7-4.9-2.8c0-7.6,0-13.7-0.7-19.5l-0.2,0l-3,2.2l0.1,1.2c0.5,5.7,0.9,10.2,0.9,15.2c0,1.8-0.6,2.6-1.6,3
			c-1,0.4-2.5,0.8-3.9,0.8h-0.7h0h-0.6c-2.7,0-4.5-0.9-5.2-2c-1.8-2.8-2.5-3.8-3.3-4.7c-1.1-1.2-2.4-1.7-4-1.7
			c-2.2,0-4.9,1.6-6.2,4.7c-1,2.4-2.1,3.7-5.6,3.7h-1h0h-3c-0.9-5.1-4.1-8.3-7.2-8.3c-2.1,0-3.9,1-5.1,2.4c-1,1-1.7,2.3-1.7,4
			c0,3.5,3.5,5.1,10.3,5.1h1.6c-0.4,1.3-1.5,2.3-3.1,3.5c-2.9,2.2-5.9,3.4-9.3,3.4c-2,0-3.6-0.4-4.9-0.9l-0.6,0.8
			c3.2,1.5,6.6,2.5,9.6,2.5c1.8,0,5.5-1.3,8-4.2c1.4-1.6,2.4-3.5,2.5-5.1h2.8h0h0.5c3.6,0,5.7-1.3,6.6-2.9h0.1
			c2.7,2.1,6.9,3.5,9.4,3.5c0.8,0,1.5-0.3,2.2-0.8c0.5-0.4,0.9-1.1,1.1-1.9h0.1c1.4,1.7,3.2,2.2,5.1,2.2h0.6h0h0.6
			c3.2,0,5.4-1.2,6.4-2.6h0.1c1.1,1.8,3.4,2.6,6.5,2.6h0.7h0h0.5c1.3,0,2.9-0.2,4.2-0.7c1.5-0.6,2.3-1.6,3-2.9
			c1-1.5,1.3-3.6,1.3-6.2C396.2,326.6,395.9,323.6,395.7,320.7z M335.8,335.6c-2.1-0.4-3.6-1.2-3.6-2.5c0-1,1.9-2.2,3.8-2.2
			c1.2,0,2.5,0.5,3.5,1.4c1.1,0.9,2,2.2,2.3,3.6C339.6,336,337.6,336,335.8,335.6z M363.8,336.7c-1.2,0-3.1-0.4-4.6-1.1
			c-1.5-0.6-3.6-1.9-3.9-2.8c0.6-1.3,2-2.2,3.8-2.2c1.4,0,3,0.8,4.3,2.2c0.9,1,1.7,2.3,1.7,3.3C365,336.6,364.4,336.7,363.8,336.7z"
			/>
		<path class="st8" d="M470.7,336.4c0.6-0.9,1.2-2.3,1.2-3.4c0-1-0.1-2.6-0.5-4.4l-0.2-0.1c-1.1,0.7-2.1,1.4-3,2.2
			c0.4,1.5,0.8,3.1,0.8,4c0,0.7-0.8,1.1-1.8,1.1c-1.6,0-3.5-1-3.5-2.9c0-0.7,0.2-1.6,0.4-2.4l-0.2-0.1l-2,0.9c-1,2.6-1.2,3.3-2.4,4
			c-0.9,0.5-2,0.7-3,0.7c-1,0-1.7-0.5-1.7-1.2c0-0.7,0.9-2,2.3-3.6l-0.1-0.1l-2.6,0.7l-1.8,2c-1.6,1.7-4,2.3-7,2.3h-1.1h0h-0.4
			c-1.5,0-2.5-0.3-3.3-0.7c-1-0.6-1.7-2-1.7-3.2c0-5.9-0.2-11.3-0.5-17.5l-0.3-0.1c-1.1,0.6-2.1,1.4-3.1,2.2c0.7,9.7,1,16.1,1,20
			c0,1.1-0.2,1.4-0.2,1.6c-0.7,0.9-2,1.7-3.6,2.4c-1.7,0.7-3.5,1.2-5.8,1.2c-2.4,0-4.3-0.6-5.8-2c-1.2-1.1-1.7-2.4-1.7-3.9
			c0-1.4,0.6-2.9,1.4-4.3l-1.2-0.3c-1.3,2.1-2.2,4.2-2.2,6.3c0,2.4,0.8,4.3,2.4,5.6c1.6,1.4,4,2.1,6.9,2.1c2.4,0,4.8-0.5,6.9-1.5
			c1.5-0.7,2.8-1.6,3.8-2.8c0.6-1.1,0.9-2.4,1.2-3.7h0.1c1.1,1.3,2.8,1.9,5.2,1.9h0.6h0h0.6c2.3,0,5.1-0.3,7.1-2.1h0.1
			c0.2,1.5,1.4,2.1,3.2,2.1c2.5,0,4.3-0.9,5.8-2.1h0.3c1.2,1.3,2.7,2.1,4.2,2.1C467.7,339.1,469.5,338,470.7,336.4z"/>
		<path class="st8" d="M490.7,347.6c-1.3-1-2.4-1.9-3.8-2.7c-0.8,0.6-1.8,1.5-2.6,2.4c1.3,0.8,2.5,1.6,3.9,2.6
			C489.1,349.2,489.8,348.6,490.7,347.6z"/>
		<path class="st8" d="M497.1,347.2c-1.3-1-2.4-1.9-3.8-2.7c-0.8,0.6-1.8,1.5-2.6,2.4c1.3,0.8,2.5,1.6,3.9,2.6
			C495.5,348.9,496.2,348.2,497.1,347.2z"/>
		<path class="st8" d="M513.8,317.7c-1.3-1-2.6-1.9-4-2.7c-0.9,0.8-1.8,1.6-2.7,2.5c1.3,0.8,2.6,1.6,3.9,2.6
			C512.2,319.4,513.1,318.6,513.8,317.7z"/>
		<path class="st8" d="M530.1,320.2c-1.3-1-2.6-1.9-4-2.7c-0.9,0.8-1.8,1.6-2.7,2.5c1.3,0.8,2.6,1.6,3.9,2.6
			C528.5,321.9,529.4,321.1,530.1,320.2z"/>
		<path class="st8" d="M529.1,325.5c-0.9,0.8-1.7,1.7-2.5,2.8c1.7,2.5,3.3,5,3.3,6.1c0,0.4-0.7,0.8-1.9,1.1
			c-1.5,0.4-3.7,0.5-6.6,0.5H521h0h-1.1c-2.2,0-3.9-0.2-5.2-0.4c1.3-1.7,2.2-3.5,2.2-5.8c0-1.2-0.5-2.4-1.3-3.5
			c-1.2-1.8-2.7-2.8-3.9-2.8c-1.2,0-3.3,0.9-5,2.3c-2.2,1.7-3,4-3,5.8c0,1.2,0.1,2.4,1.2,3.8c-1.5,0.2-3.5,0.6-5.4,0.6H499h0h-0.4
			c-0.9,0-1.8-0.2-2.7-0.5c-1.5-0.7-2.4-2.4-2.8-4.3c-0.5-2.1-0.8-3.3-0.9-3.9h-0.3c-1.1,1.3-1.7,2.8-2.8,3.4
			c-0.7,0.4-1.6,0.7-2.4,0.7c-1.1,0-2-0.1-2.8-0.5c-0.7-0.4-1.6-1-2.4-1.6h-0.3l-1.1,3.2c1.7,1.4,3.4,2.7,4.2,4.2
			c0,0.9-1.2,2.2-2.7,3.5c-2.6,2.3-5.7,3.5-9.1,3.5c-1.1,0-2.3-0.3-3.1-0.6l-0.5,0.8c3.2,1.2,5.8,2,8.7,2c1.7,0,4.3-1.3,6.6-3.8
			c1.3-1.4,1.8-2.8,1.9-3.3c0.1-0.7,0.1-1,0.1-1.3c0-1.1-0.1-2.2-0.5-3.4c2.2,0.1,3.9-1.1,4.9-2.7h0.2l0.8,2.5c1.3,4,3,5.4,7,5.4
			h0.6h0h0.6c2.3,0,5.3-0.5,9.5-1.6c4.2,1.1,7.6,1.6,10.9,1.6h1h0h0.4c5.1,0,7.5-0.4,9-1.5c1.3-1.3,2.3-2.8,2.3-4.6
			c0-2.5-1.8-5.6-3.3-7.6H529.1z M509.8,334.6c-2.9-0.6-4.1-1.9-4.6-3.3c0.6-1.8,3.1-4.1,5.7-4.1c1.4,0,2.4,0.9,3.3,2.2
			c0.3,0.5,0.8,1.3,0.8,2.2C515.1,332.7,512.1,334.3,509.8,334.6z"/>
		<path class="st8" d="M565.3,343.8c-0.8,0.6-1.8,1.5-2.6,2.4c1.3,0.8,2.5,1.6,3.9,2.6c0.9-0.6,1.6-1.3,2.5-2.3
			C567.8,345.5,566.7,344.6,565.3,343.8z"/>
		<path class="st8" d="M556.3,346.5c1.3,0.8,2.5,1.6,3.9,2.6c0.9-0.6,1.6-1.3,2.5-2.3c-1.3-1-2.4-1.9-3.8-2.7
			C558.1,344.8,557.1,345.6,556.3,346.5z"/>
		<path class="st8" d="M556.3,339.2h0.4c5.1,0,7.5-0.4,9-1.5c1.3-1.3,2.3-2.8,2.3-4.6c0-2.5-1.8-5.6-3.3-7.6h-0.2
			c-0.9,0.8-1.7,1.7-2.5,2.8c1.7,2.5,3.3,5,3.3,6.1c0,0.4-0.7,0.8-1.9,1.1c-1.5,0.4-3.7,0.5-6.6,0.5h-0.6h0h-3
			c-0.9-5.1-4.1-8.3-7.2-8.3c-2.1,0-3.9,1-5.1,2.4c-1,1-1.7,2.3-1.7,4c0,3.5,3.5,5.1,10.3,5.1h1.6c-0.4,1.3-1.5,2.3-3.1,3.5
			c-2.9,2.2-5.9,3.4-9.3,3.4c-2,0-3.6-0.4-4.9-0.9l-0.6,0.8c3.2,1.5,6.6,2.5,9.6,2.5c1.8,0,5.5-1.3,8-4.2c1.4-1.6,2.4-3.5,2.5-5.1
			H556.3L556.3,339.2z M545.1,335.6c-2.1-0.4-3.6-1.2-3.6-2.5c0-1,1.9-2.2,3.8-2.2c1.2,0,2.5,0.5,3.5,1.4c1.1,0.9,2,2.2,2.3,3.6
			C549,336,547,336,545.1,335.6z"/>
		<path class="st8" d="M53.7,374.5c0,1.6-0.4,2.8-1.3,3.7c-0.9,0.9-2.1,1.3-3.6,1.3c-1.5,0-2.7-0.4-3.6-1.3
			c-0.9-0.9-1.3-2.1-1.3-3.7v-17.4h-8.8v17c0,1.4,0.3,3,0.8,4.8c0.3,1.1,1,2.2,1.9,3.3c0.9,1.1,1.9,1.9,3,2.5c1.1,0.6,2.5,1,4.1,1.2
			c1.6,0.2,3.2,0.3,4.6,0.3c2.4,0,4.5-0.3,6.2-1c1.2-0.5,2.4-1.2,3.5-2.4c1.1-1.1,2-2.4,2.5-3.9s0.8-3.1,0.8-4.8v-17h-8.8V374.5z"/>
		<polygon class="st8" points="87.4,372.9 76.6,357.1 68.4,357.1 68.4,385.7 76.7,385.7 76.7,370 87.4,385.7 95.7,385.7 95.7,357.1 
			87.4,357.1 		"/>
		<rect x="102" y="357.1" class="st8" width="8.9" height="28.6"/>
		<polygon class="st8" points="130,377.7 123.6,357.1 114.3,357.1 125.1,385.7 134.7,385.7 145.3,357.1 136.4,357.1 		"/>
		<polygon class="st8" points="157.1,373.6 170.8,373.6 170.8,367.8 157.1,367.8 157.1,363.2 171.9,363.2 171.9,357.1 148.2,357.1 
			148.2,385.7 172.3,385.7 172.3,379.2 157.1,379.2 		"/>
		<path class="st8" d="M199.8,375.6c-0.6-0.8-1.1-1.3-1.4-1.5c-0.5-0.4-1.2-0.7-2.3-1.1c1.3-0.3,2.3-0.7,3.1-1.1
			c1.2-0.7,2.1-1.6,2.8-2.8c0.7-1.2,1-2.5,1-4.1c0-1.8-0.4-3.4-1.3-4.6c-0.9-1.3-2-2.1-3.5-2.6c-1.4-0.5-3.5-0.7-6.3-0.7h-14.7v28.6
			h8.9v-11.6h0.8c0.8,0,1.5,0.2,2.2,0.7c0.5,0.3,1,1.1,1.6,2.2l4.7,8.7h10l-4.3-8.3C200.9,377,200.4,376.4,199.8,375.6z
			 M193.6,367.4c-0.4,0.5-0.8,0.8-1.4,0.9c-1.2,0.3-1.9,0.4-2.3,0.4h-3.7v-5.8h3.9c1.6,0,2.7,0.2,3.3,0.7c0.6,0.5,0.9,1.2,0.9,2.1
			C194.1,366.4,194,366.9,193.6,367.4z"/>
		<path class="st8" d="M227.8,369c-1.7-0.9-4.4-1.7-8.3-2.5c-1.6-0.3-2.5-0.7-3-1.1c-0.4-0.4-0.6-0.8-0.6-1.2c0-0.6,0.3-1.2,0.8-1.6
			c0.5-0.4,1.3-0.7,2.3-0.7c1.2,0,2.2,0.3,2.9,0.9c0.7,0.6,1.2,1.5,1.4,2.8l8.3-0.5c-0.4-3-1.5-5.1-3.4-6.5c-1.9-1.4-4.7-2-8.4-2
			c-3,0-5.3,0.4-7,1.1c-1.7,0.7-3,1.8-3.8,3.1c-0.9,1.3-1.3,2.7-1.3,4.2c0,2.2,0.8,4.1,2.5,5.5c1.7,1.4,4.4,2.6,8.3,3.5
			c2.4,0.5,3.9,1.1,4.5,1.7c0.7,0.6,1,1.2,1,2c0,0.8-0.3,1.5-1,2.1c-0.7,0.6-1.7,0.9-2.9,0.9c-1.7,0-3-0.6-3.9-1.7
			c-0.6-0.7-0.9-1.8-1.1-3.1l-8.4,0.5c0.2,2.9,1.3,5.3,3.2,7.1c1.9,1.9,5.2,2.8,10.1,2.8c2.8,0,5.1-0.4,6.9-1.2
			c1.8-0.8,3.2-2,4.3-3.5c1-1.5,1.5-3.2,1.5-5.1c0-1.6-0.4-3-1.1-4.2C230.7,370.9,229.5,369.8,227.8,369z"/>
		<path class="st8" d="M244.9,357.1l-10.7,28.6h9l1.4-4.7h10l1.4,4.7h9.3l-10.7-28.6H244.9z M246.5,374.8l3.1-10.3l3.2,10.3H246.5z"
			/>
		<polygon class="st8" points="276.9,357.1 268.1,357.1 268.1,385.7 290.7,385.7 290.7,378.7 276.9,378.7 		"/>
		<polygon class="st8" points="302.5,385.7 311.4,385.7 311.4,374 322.5,374 322.5,368.2 311.4,368.2 311.4,363.2 324.4,363.2 
			324.4,357.1 302.5,357.1 		"/>
		<path class="st8" d="M342.8,356.6c-4.6,0-8.3,1.3-10.9,3.9c-2.6,2.6-3.9,6.2-3.9,10.9c0,3.3,0.7,6.1,2,8.4s3,3.9,5.1,4.9
			c2.1,1,4.8,1.5,8,1.5c3.2,0,5.8-0.6,7.9-1.8c2.1-1.2,3.8-2.9,4.9-5c1.1-2.1,1.7-4.9,1.7-8.2c0-4.6-1.3-8.2-3.9-10.7
			C351.2,357.9,347.5,356.6,342.8,356.6z M347.2,377.7c-1,1.2-2.5,1.9-4.4,1.9c-1.8,0-3.3-0.6-4.4-1.9c-1.1-1.3-1.6-3.3-1.6-6.2
			c0-2.9,0.5-5,1.6-6.3c1.1-1.3,2.5-1.9,4.3-1.9c1.9,0,3.3,0.6,4.4,1.9c1.1,1.2,1.6,3.2,1.6,5.9
			C348.8,374.3,348.3,376.5,347.2,377.7z"/>
		<path class="st8" d="M376.1,356.6c-4.6,0-8.3,1.3-10.9,3.9c-2.6,2.6-3.9,6.2-3.9,10.9c0,3.3,0.7,6.1,2,8.4s3,3.9,5.1,4.9
			c2.1,1,4.8,1.5,8,1.5c3.2,0,5.8-0.6,7.9-1.8c2.1-1.2,3.8-2.9,4.9-5c1.1-2.1,1.7-4.9,1.7-8.2c0-4.6-1.3-8.2-3.9-10.7
			C384.5,357.9,380.8,356.6,376.1,356.6z M380.5,377.7c-1,1.2-2.5,1.9-4.4,1.9c-1.8,0-3.3-0.6-4.4-1.9c-1.1-1.3-1.6-3.3-1.6-6.2
			c0-2.9,0.5-5,1.6-6.3c1.1-1.3,2.5-1.9,4.3-1.9c1.9,0,3.3,0.6,4.4,1.9c1.1,1.2,1.6,3.2,1.6,5.9
			C382.1,374.3,381.6,376.5,380.5,377.7z"/>
		<path class="st8" d="M419.2,361.2c-1-1.3-2.4-2.3-4-3s-3.7-1.1-6.3-1.1h-13.1v28.6h13.1c1.6,0,3.3-0.3,5.3-0.8
			c1.4-0.4,2.7-1.1,4-2.3c1.2-1.1,2.2-2.5,2.9-4.2c0.7-1.7,1-4.1,1-7.1c0-2-0.2-3.8-0.7-5.5C421,364,420.2,362.5,419.2,361.2z
			 M412.6,376.4c-0.4,1-1.1,1.7-1.8,2.1c-0.8,0.4-2.1,0.6-3.9,0.6h-2.2v-15.6h2.2c2.3,0,3.9,0.6,4.9,1.7c1,1.1,1.5,3.2,1.5,6.2
			C413.3,373.8,413,375.4,412.6,376.4z"/>
		<path class="st8" d="M446.4,369c-1.7-0.9-4.4-1.7-8.3-2.5c-1.6-0.3-2.5-0.7-3-1.1c-0.4-0.4-0.6-0.8-0.6-1.2c0-0.6,0.3-1.2,0.8-1.6
			c0.5-0.4,1.3-0.7,2.3-0.7c1.2,0,2.2,0.3,2.9,0.9c0.7,0.6,1.2,1.5,1.4,2.8l8.3-0.5c-0.4-3-1.5-5.1-3.4-6.5c-1.9-1.4-4.7-2-8.4-2
			c-3,0-5.3,0.4-7,1.1c-1.7,0.7-3,1.8-3.8,3.1c-0.9,1.3-1.3,2.7-1.3,4.2c0,2.2,0.8,4.1,2.5,5.5c1.7,1.4,4.4,2.6,8.3,3.5
			c2.4,0.5,3.9,1.1,4.5,1.7c0.7,0.6,1,1.2,1,2c0,0.8-0.3,1.5-1,2.1c-0.7,0.6-1.7,0.9-2.9,0.9c-1.7,0-3-0.6-3.9-1.7
			c-0.6-0.7-0.9-1.8-1.1-3.1l-8.4,0.5c0.2,2.9,1.3,5.3,3.2,7.1c1.9,1.9,5.2,2.8,10.1,2.8c2.8,0,5.1-0.4,6.9-1.2
			c1.8-0.8,3.2-2,4.3-3.5c1-1.5,1.5-3.2,1.5-5.1c0-1.6-0.4-3-1.1-4.2C449.3,370.9,448.1,369.8,446.4,369z"/>
		<polygon class="st8" points="490.1,376.9 486.9,365.7 481.1,365.7 478,376.9 475.9,365.7 470,365.7 474.4,385.7 480.5,385.7 
			484,373.1 487.5,385.7 493.6,385.7 498,365.7 492.2,365.7 		"/>
		<rect x="498.2" y="380.1" class="st8" width="5.9" height="5.6"/>
		<polygon class="st8" points="514.1,365.7 507.9,365.7 507.9,385.7 523.8,385.7 523.8,380.8 514.1,380.8 		"/>
		<rect x="526.3" y="380.1" class="st8" width="5.9" height="5.6"/>
		<polygon class="st8" points="542.1,365.7 535.9,365.7 535.9,385.7 551.8,385.7 551.8,380.8 542.1,380.8 		"/>
		<rect x="554.3" y="380.1" class="st8" width="5.9" height="5.6"/>
	</g>
</g>
</svg>
